<svg xmlns="http://www.w3.org/2000/svg" width="24" height="24" viewBox="0 0 24 24"><!-- SAM GH icon constructionLayer_plural_calculate --><g vector-effect="non-scaling-stroke"><g transform="translate(5 -1.5) scale(0.78)"><polygon points="12.2,3.6 14.4,4.7 7.4,8.2 5.2,7.1" fill="#ADD485" stroke="#111111" stroke-width="1.41" stroke-linejoin="round"/><polygon points="5.2,7.1 7.4,8.2 7.4,17.2 5.2,16.1" fill="#81BC44" stroke="#111111" stroke-width="1.41" stroke-linejoin="round"/><polygon points="14.4,4.7 7.4,8.2 7.4,17.2 14.4,13.7" fill="#659335" stroke="#111111" stroke-width="1.41" stroke-linejoin="round"/></g><g transform="translate(-0.5 3.6) scale(0.78)"><polygon points="12.2,3.6 14.4,4.7 7.4,8.2 5.2,7.1" fill="#ADD485" stroke="#111111" stroke-width="1.41" stroke-linejoin="round"/><polygon points="5.2,7.1 7.4,8.2 7.4,17.2 5.2,16.1" fill="#81BC44" stroke="#111111" stroke-width="1.41" stroke-linejoin="round"/><polygon points="14.4,4.7 7.4,8.2 7.4,17.2 14.4,13.7" fill="#659335" stroke="#111111" stroke-width="1.41" stroke-linejoin="round"/></g></g><circle cx="19" cy="19" r="5" fill="#FFFFFF"/><circle cx="19" cy="19" r="4.2" fill="#111111"/><path d="M16.8 17.9h4.4M16.8 20.1h4.4" fill="none" stroke="#FFFFFF" stroke-width="1.4" stroke-linecap="round" stroke-linejoin="round"/></svg>
