<svg xmlns="http://www.w3.org/2000/svg" width="24" height="24" viewBox="0 0 24 24"><!-- SAM GH icon zone_get --><g vector-effect="non-scaling-stroke"><polygon points="10,7 19,11.5 10,16 1,11.5" fill="#81BC44" stroke="#111111" stroke-width="1.3" stroke-linejoin="round"/><polygon points="10,3 13.2,4.6 10,6.2 6.8,4.6" fill="#FFFFFF" stroke="#111111" stroke-width="1.1" stroke-linejoin="round"/><polygon points="6.8,4.6 10,6.2 10,11.2 6.8,9.6" fill="#E3E3E3" stroke="#111111" stroke-width="1.1" stroke-linejoin="round"/><polygon points="13.2,4.6 10,6.2 10,11.2 13.2,9.6" fill="#BDBDBD" stroke="#111111" stroke-width="1.1" stroke-linejoin="round"/><polygon points="10,6.8 13.2,8.4 10,10 6.8,8.4" fill="#FFFFFF" stroke="#111111" stroke-width="1.1" stroke-linejoin="round"/><polygon points="6.8,8.4 10,10 10,15 6.8,13.4" fill="#E3E3E3" stroke="#111111" stroke-width="1.1" stroke-linejoin="round"/><polygon points="13.2,8.4 10,10 10,15 13.2,13.4" fill="#BDBDBD" stroke="#111111" stroke-width="1.1" stroke-linejoin="round"/></g><circle cx="19" cy="19" r="5" fill="#FFFFFF"/><circle cx="19" cy="19" r="4.2" fill="#277A45"/><path d="M17 21L21 17M18.2 17H21V19.8" fill="none" stroke="#FFFFFF" stroke-width="1.5" stroke-linecap="round" stroke-linejoin="round"/></svg>
