<svg xmlns="http://www.w3.org/2000/svg" width="24" height="24" viewBox="0 0 24 24"><!-- SAM GH icon thermometer_get_tsd --><g vector-effect="non-scaling-stroke"><path d="M8 11.5V4a2 2 0 0 1 4 0v7.5a3.8 3.8 0 1 1-4 0z" fill="#FFFFFF" stroke="#111111" stroke-width="1.1" stroke-linecap="round" stroke-linejoin="round"/><path d="M10 7.5V13" fill="none" stroke="#659335" stroke-width="2.2" stroke-linecap="round" stroke-linejoin="round"/><circle cx="10" cy="14.5" r="2.1" fill="#81BC44"/><path d="M13.5 5h2M13.5 8h2" fill="none" stroke="#111111" stroke-width="1" stroke-linecap="round" stroke-linejoin="round"/></g><circle cx="19" cy="19" r="5" fill="#FFFFFF"/><circle cx="19" cy="19" r="4.2" fill="#277A45"/><path d="M17 21L21 17M18.2 17H21V19.8" fill="none" stroke="#FFFFFF" stroke-width="1.5" stroke-linecap="round" stroke-linejoin="round"/><path d="M15.6 0L24 8.4" stroke="#FFFFFF" stroke-width="1.6" fill="none"/><polygon points="16.4,0 24,0 24,7.6" fill="#F8744A"/><path d="M16.4 0L24 7.6" stroke="#111111" stroke-width="0.9" fill="none" stroke-linecap="round"/></svg>
